<svg id="visual" viewBox="0 0 4000 2000" width="4000" height="2000" xmlns="http://www.w3.org/2000/svg" xmlns:xlink="http://www.w3.org/1999/xlink" version="1.1"><g stroke-width="1" stroke-linejoin="bevel"><path d="M2008 875.1L1770.3 874.1L1958 1142.9Z" fill="#781288" stroke="#781288"></path><path d="M1770.3 874.1L1658.3 1097.9L1958 1142.9Z" fill="#2a044b" stroke="#2a044b"></path><path d="M1958 1142.9L2276.7 1142.9L2008 875.1Z" fill="#871492" stroke="#871492"></path><path d="M2276.7 1142.9L2299.7 893.1L2008 875.1Z" fill="#871492" stroke="#871492"></path><path d="M1658.3 1097.9L1763.3 1406.6L1958 1142.9Z" fill="#781288" stroke="#781288"></path><path d="M1958 1142.9L2011 1459.6L2276.7 1142.9Z" fill="#6a107e" stroke="#6a107e"></path><path d="M1948 513.4L1701.3 573.4L1770.3 874.1Z" fill="#4f0b6a" stroke="#4f0b6a"></path><path d="M1411.6 912.1L1452.6 1167.9L1658.3 1097.9Z" fill="#a616a5" stroke="#a616a5"></path><path d="M1948 513.4L1770.3 874.1L2008 875.1Z" fill="#360655" stroke="#360655"></path><path d="M1411.6 912.1L1658.3 1097.9L1770.3 874.1Z" fill="#6a107e" stroke="#6a107e"></path><path d="M1658.3 1097.9L1452.6 1167.9L1763.3 1406.6Z" fill="#5c0e74" stroke="#5c0e74"></path><path d="M2325.7 607.4L1948 513.4L2008 875.1Z" fill="#420960" stroke="#420960"></path><path d="M1701.3 573.4L1411.6 912.1L1770.3 874.1Z" fill="#871492" stroke="#871492"></path><path d="M1763.3 1406.6L2011 1459.6L1958 1142.9Z" fill="#360655" stroke="#360655"></path><path d="M2299.7 893.1L2325.7 607.4L2008 875.1Z" fill="#420960" stroke="#420960"></path><path d="M2011 1459.6L2261.7 1452.6L2276.7 1142.9Z" fill="#420960" stroke="#420960"></path><path d="M2276.7 1142.9L2568.4 1128.9L2299.7 893.1Z" fill="#2a044b" stroke="#2a044b"></path><path d="M2299.7 893.1L2577.4 836.1L2325.7 607.4Z" fill="#b617ae" stroke="#b617ae"></path><path d="M2293.7 285.7L1978 332.7L1948 513.4Z" fill="#96159b" stroke="#96159b"></path><path d="M1948 513.4L1692.3 317.7L1701.3 573.4Z" fill="#4f0b6a" stroke="#4f0b6a"></path><path d="M1190.9 1114.9L1421.6 1464.6L1452.6 1167.9Z" fill="#b617ae" stroke="#b617ae"></path><path d="M1452.6 1167.9L1421.6 1464.6L1763.3 1406.6Z" fill="#a616a5" stroke="#a616a5"></path><path d="M1763.3 1406.6L1719.3 1662.3L2011 1459.6Z" fill="#360655" stroke="#360655"></path><path d="M1421.6 1464.6L1719.3 1662.3L1763.3 1406.6Z" fill="#4f0b6a" stroke="#4f0b6a"></path><path d="M2011 1459.6L2028 1764.3L2261.7 1452.6Z" fill="#6a107e" stroke="#6a107e"></path><path d="M2542.4 1401.6L2568.4 1128.9L2276.7 1142.9Z" fill="#6a107e" stroke="#6a107e"></path><path d="M1692.3 317.7L1376.6 515.4L1701.3 573.4Z" fill="#871492" stroke="#871492"></path><path d="M1701.3 573.4L1376.6 515.4L1411.6 912.1Z" fill="#360655" stroke="#360655"></path><path d="M1411.6 912.1L1190.9 1114.9L1452.6 1167.9Z" fill="#360655" stroke="#360655"></path><path d="M1978 332.7L1692.3 317.7L1948 513.4Z" fill="#5c0e74" stroke="#5c0e74"></path><path d="M2568.4 1128.9L2577.4 836.1L2299.7 893.1Z" fill="#420960" stroke="#420960"></path><path d="M1126.9 895.1L1190.9 1114.9L1411.6 912.1Z" fill="#871492" stroke="#871492"></path><path d="M1376.6 515.4L1126.9 895.1L1411.6 912.1Z" fill="#b617ae" stroke="#b617ae"></path><path d="M2302.7 1713.3L2542.4 1401.6L2261.7 1452.6Z" fill="#96159b" stroke="#96159b"></path><path d="M2261.7 1452.6L2542.4 1401.6L2276.7 1142.9Z" fill="#a616a5" stroke="#a616a5"></path><path d="M1719.3 1662.3L2028 1764.3L2011 1459.6Z" fill="#6a107e" stroke="#6a107e"></path><path d="M1158.9 1710.3L1431.6 1656.3L1421.6 1464.6Z" fill="#360655" stroke="#360655"></path><path d="M1421.6 1464.6L1431.6 1656.3L1719.3 1662.3Z" fill="#4f0b6a" stroke="#4f0b6a"></path><path d="M1696.3 2000L2045 2000L2028 1764.3Z" fill="#4f0b6a" stroke="#4f0b6a"></path><path d="M2325.7 607.4L2293.7 285.7L1948 513.4Z" fill="#a616a5" stroke="#a616a5"></path><path d="M1978 332.7L1713.3 0L1692.3 317.7Z" fill="#2a044b" stroke="#2a044b"></path><path d="M2583.4 534.4L2293.7 285.7L2325.7 607.4Z" fill="#2a044b" stroke="#2a044b"></path><path d="M2577.4 836.1L2583.4 534.4L2325.7 607.4Z" fill="#5c0e74" stroke="#5c0e74"></path><path d="M2028 1764.3L2302.7 1713.3L2261.7 1452.6Z" fill="#4f0b6a" stroke="#4f0b6a"></path><path d="M1692.3 317.7L1396.6 290.7L1376.6 515.4Z" fill="#5c0e74" stroke="#5c0e74"></path><path d="M1376.6 515.4L1127.9 549.4L1126.9 895.1Z" fill="#96159b" stroke="#96159b"></path><path d="M1713.3 0L1396.6 290.7L1692.3 317.7Z" fill="#5c0e74" stroke="#5c0e74"></path><path d="M1396.6 290.7L1127.9 549.4L1376.6 515.4Z" fill="#96159b" stroke="#96159b"></path><path d="M817.1 1120.9L1088.9 1395.6L1190.9 1114.9Z" fill="#96159b" stroke="#96159b"></path><path d="M1190.9 1114.9L1088.9 1395.6L1421.6 1464.6Z" fill="#4f0b6a" stroke="#4f0b6a"></path><path d="M817.1 1120.9L1190.9 1114.9L1126.9 895.1Z" fill="#b617ae" stroke="#b617ae"></path><path d="M2542.4 1401.6L2807.1 1103.9L2568.4 1128.9Z" fill="#96159b" stroke="#96159b"></path><path d="M2568.4 1128.9L2807.1 1103.9L2577.4 836.1Z" fill="#2a044b" stroke="#2a044b"></path><path d="M2577.4 836.1L2837.1 519.4L2583.4 534.4Z" fill="#b617ae" stroke="#b617ae"></path><path d="M2870.1 1454.6L2807.1 1103.9L2542.4 1401.6Z" fill="#781288" stroke="#781288"></path><path d="M2837.1 519.4L2574.4 301.7L2583.4 534.4Z" fill="#781288" stroke="#781288"></path><path d="M2583.4 534.4L2574.4 301.7L2293.7 285.7Z" fill="#781288" stroke="#781288"></path><path d="M2269.7 0L2028 0L2293.7 285.7Z" fill="#360655" stroke="#360655"></path><path d="M2293.7 285.7L2028 0L1978 332.7Z" fill="#5c0e74" stroke="#5c0e74"></path><path d="M2807.1 1103.9L2885.1 873.1L2577.4 836.1Z" fill="#360655" stroke="#360655"></path><path d="M2028 0L1713.3 0L1978 332.7Z" fill="#96159b" stroke="#96159b"></path><path d="M2536.4 2000L2605.4 1710.3L2302.7 1713.3Z" fill="#6a107e" stroke="#6a107e"></path><path d="M2302.7 1713.3L2605.4 1710.3L2542.4 1401.6Z" fill="#b617ae" stroke="#b617ae"></path><path d="M3180.9 1179.9L3125.9 802.1L2885.1 873.1Z" fill="#871492" stroke="#871492"></path><path d="M1696.3 2000L2028 1764.3L1719.3 1662.3Z" fill="#2a044b" stroke="#2a044b"></path><path d="M2028 1764.3L2285.7 2000L2302.7 1713.3Z" fill="#781288" stroke="#781288"></path><path d="M1088.9 1395.6L1158.9 1710.3L1421.6 1464.6Z" fill="#781288" stroke="#781288"></path><path d="M1431.6 1656.3L1696.3 2000L1719.3 1662.3Z" fill="#871492" stroke="#871492"></path><path d="M1405.6 2000L1696.3 2000L1431.6 1656.3Z" fill="#b617ae" stroke="#b617ae"></path><path d="M1127.9 549.4L847.1 853.1L1126.9 895.1Z" fill="#4f0b6a" stroke="#4f0b6a"></path><path d="M1088.9 1395.6L870.1 1730.3L1158.9 1710.3Z" fill="#b617ae" stroke="#b617ae"></path><path d="M2885.1 873.1L2837.1 519.4L2577.4 836.1Z" fill="#871492" stroke="#871492"></path><path d="M2574.4 301.7L2269.7 0L2293.7 285.7Z" fill="#a616a5" stroke="#a616a5"></path><path d="M2622.4 0L2269.7 0L2574.4 301.7Z" fill="#b617ae" stroke="#b617ae"></path><path d="M847.1 853.1L817.1 1120.9L1126.9 895.1Z" fill="#b617ae" stroke="#b617ae"></path><path d="M2045 2000L2285.7 2000L2028 1764.3Z" fill="#2a044b" stroke="#2a044b"></path><path d="M2605.4 1710.3L2870.1 1454.6L2542.4 1401.6Z" fill="#b617ae" stroke="#b617ae"></path><path d="M1396.6 290.7L1084.9 229.7L1127.9 549.4Z" fill="#b617ae" stroke="#b617ae"></path><path d="M1127.9 549.4L811.1 532.4L847.1 853.1Z" fill="#b617ae" stroke="#b617ae"></path><path d="M1151.9 0L1084.9 229.7L1396.6 290.7Z" fill="#4f0b6a" stroke="#4f0b6a"></path><path d="M1713.3 0L1382.6 0L1396.6 290.7Z" fill="#a616a5" stroke="#a616a5"></path><path d="M1158.9 1710.3L1405.6 2000L1431.6 1656.3Z" fill="#420960" stroke="#420960"></path><path d="M817.1 1120.9L812.1 1406.6L1088.9 1395.6Z" fill="#6a107e" stroke="#6a107e"></path><path d="M1158.9 1710.3L1169.9 2000L1405.6 2000Z" fill="#2a044b" stroke="#2a044b"></path><path d="M857.1 243.7L811.1 532.4L1127.9 549.4Z" fill="#4f0b6a" stroke="#4f0b6a"></path><path d="M847.1 853.1L606.4 901.1L817.1 1120.9Z" fill="#360655" stroke="#360655"></path><path d="M817.1 1120.9L572.4 1119.9L812.1 1406.6Z" fill="#2a044b" stroke="#2a044b"></path><path d="M2285.7 2000L2536.4 2000L2302.7 1713.3Z" fill="#871492" stroke="#871492"></path><path d="M2605.4 1710.3L2897.1 1659.3L2870.1 1454.6Z" fill="#781288" stroke="#781288"></path><path d="M2850.1 2000L2897.1 1659.3L2605.4 1710.3Z" fill="#2a044b" stroke="#2a044b"></path><path d="M3180.9 1179.9L2885.1 873.1L2807.1 1103.9Z" fill="#781288" stroke="#781288"></path><path d="M3121.9 342.7L2881.1 289.7L2837.1 519.4Z" fill="#4f0b6a" stroke="#4f0b6a"></path><path d="M2837.1 519.4L2881.1 289.7L2574.4 301.7Z" fill="#2a044b" stroke="#2a044b"></path><path d="M3087.9 624.4L2837.1 519.4L2885.1 873.1Z" fill="#b617ae" stroke="#b617ae"></path><path d="M2813.1 0L2622.4 0L2574.4 301.7Z" fill="#4f0b6a" stroke="#4f0b6a"></path><path d="M1382.6 0L1151.9 0L1396.6 290.7Z" fill="#b617ae" stroke="#b617ae"></path><path d="M1084.9 229.7L857.1 243.7L1127.9 549.4Z" fill="#4f0b6a" stroke="#4f0b6a"></path><path d="M870.1 1730.3L1169.9 2000L1158.9 1710.3Z" fill="#b617ae" stroke="#b617ae"></path><path d="M3180.9 1179.9L2807.1 1103.9L2870.1 1454.6Z" fill="#96159b" stroke="#96159b"></path><path d="M3125.9 802.1L3087.9 624.4L2885.1 873.1Z" fill="#871492" stroke="#871492"></path><path d="M812.1 1406.6L870.1 1730.3L1088.9 1395.6Z" fill="#871492" stroke="#871492"></path><path d="M820.1 0L857.1 243.7L1084.9 229.7Z" fill="#420960" stroke="#420960"></path><path d="M594.4 517.4L606.4 901.1L811.1 532.4Z" fill="#b617ae" stroke="#b617ae"></path><path d="M811.1 532.4L606.4 901.1L847.1 853.1Z" fill="#5c0e74" stroke="#5c0e74"></path><path d="M812.1 1406.6L618.4 1730.3L870.1 1730.3Z" fill="#2a044b" stroke="#2a044b"></path><path d="M3146.9 1470.6L3180.9 1179.9L2870.1 1454.6Z" fill="#96159b" stroke="#96159b"></path><path d="M606.4 901.1L572.4 1119.9L817.1 1120.9Z" fill="#b617ae" stroke="#b617ae"></path><path d="M3152.9 1770.3L3146.9 1470.6L2897.1 1659.3Z" fill="#4f0b6a" stroke="#4f0b6a"></path><path d="M2897.1 1659.3L3146.9 1470.6L2870.1 1454.6Z" fill="#420960" stroke="#420960"></path><path d="M3170.9 0L2813.1 0L2881.1 289.7Z" fill="#b617ae" stroke="#b617ae"></path><path d="M2881.1 289.7L2813.1 0L2574.4 301.7Z" fill="#5c0e74" stroke="#5c0e74"></path><path d="M621.4 328.7L594.4 517.4L811.1 532.4Z" fill="#96159b" stroke="#96159b"></path><path d="M305.7 876.1L323.7 1120.9L572.4 1119.9Z" fill="#4f0b6a" stroke="#4f0b6a"></path><path d="M3478.6 529.4L3121.9 342.7L3087.9 624.4Z" fill="#a616a5" stroke="#a616a5"></path><path d="M3087.9 624.4L3121.9 342.7L2837.1 519.4Z" fill="#5c0e74" stroke="#5c0e74"></path><path d="M3478.6 529.4L3087.9 624.4L3125.9 802.1Z" fill="#b617ae" stroke="#b617ae"></path><path d="M2536.4 2000L2850.1 2000L2605.4 1710.3Z" fill="#781288" stroke="#781288"></path><path d="M323.7 1120.9L547.4 1444.6L572.4 1119.9Z" fill="#5c0e74" stroke="#5c0e74"></path><path d="M572.4 1119.9L547.4 1444.6L812.1 1406.6Z" fill="#2a044b" stroke="#2a044b"></path><path d="M870.1 1730.3L846.1 2000L1169.9 2000Z" fill="#5c0e74" stroke="#5c0e74"></path><path d="M857.1 243.7L621.4 328.7L811.1 532.4Z" fill="#360655" stroke="#360655"></path><path d="M820.1 0L621.4 328.7L857.1 243.7Z" fill="#96159b" stroke="#96159b"></path><path d="M618.4 1730.3L846.1 2000L870.1 1730.3Z" fill="#360655" stroke="#360655"></path><path d="M1151.9 0L820.1 0L1084.9 229.7Z" fill="#2a044b" stroke="#2a044b"></path><path d="M547.4 1444.6L618.4 1730.3L812.1 1406.6Z" fill="#781288" stroke="#781288"></path><path d="M2850.1 2000L3152.9 1770.3L2897.1 1659.3Z" fill="#360655" stroke="#360655"></path><path d="M3425.6 1414.6L3411.6 1156.9L3180.9 1179.9Z" fill="#360655" stroke="#360655"></path><path d="M3425.6 1414.6L3180.9 1179.9L3146.9 1470.6Z" fill="#a616a5" stroke="#a616a5"></path><path d="M3180.9 1179.9L3411.6 1156.9L3125.9 802.1Z" fill="#360655" stroke="#360655"></path><path d="M305.7 876.1L572.4 1119.9L606.4 901.1Z" fill="#a616a5" stroke="#a616a5"></path><path d="M547.4 1444.6L322.7 1700.3L618.4 1730.3Z" fill="#360655" stroke="#360655"></path><path d="M305.7 876.1L606.4 901.1L279.7 612.4Z" fill="#a616a5" stroke="#a616a5"></path><path d="M279.7 612.4L606.4 901.1L594.4 517.4Z" fill="#6a107e" stroke="#6a107e"></path><path d="M3411.6 1156.9L3471.6 821.1L3125.9 802.1Z" fill="#420960" stroke="#420960"></path><path d="M3421.6 1748.3L3425.6 1414.6L3146.9 1470.6Z" fill="#4f0b6a" stroke="#4f0b6a"></path><path d="M3411.6 1156.9L3713.3 888.1L3471.6 821.1Z" fill="#871492" stroke="#871492"></path><path d="M2850.1 2000L3138.9 2000L3152.9 1770.3Z" fill="#a616a5" stroke="#a616a5"></path><path d="M3152.9 1770.3L3421.6 1748.3L3146.9 1470.6Z" fill="#360655" stroke="#360655"></path><path d="M3402.6 320.7L3170.9 0L3121.9 342.7Z" fill="#5c0e74" stroke="#5c0e74"></path><path d="M3121.9 342.7L3170.9 0L2881.1 289.7Z" fill="#a616a5" stroke="#a616a5"></path><path d="M336.7 252.7L594.4 517.4L621.4 328.7Z" fill="#6a107e" stroke="#6a107e"></path><path d="M336.7 252.7L279.7 612.4L594.4 517.4Z" fill="#420960" stroke="#420960"></path><path d="M0 1113.9L289.7 1428.6L323.7 1120.9Z" fill="#96159b" stroke="#96159b"></path><path d="M3471.6 821.1L3478.6 529.4L3125.9 802.1Z" fill="#96159b" stroke="#96159b"></path><path d="M3478.6 529.4L3402.6 320.7L3121.9 342.7Z" fill="#a616a5" stroke="#a616a5"></path><path d="M0 1113.9L323.7 1120.9L305.7 876.1Z" fill="#a616a5" stroke="#a616a5"></path><path d="M323.7 1120.9L289.7 1428.6L547.4 1444.6Z" fill="#b617ae" stroke="#b617ae"></path><path d="M618.4 1730.3L522.4 2000L846.1 2000Z" fill="#6a107e" stroke="#6a107e"></path><path d="M820.1 0L515.4 0L621.4 328.7Z" fill="#6a107e" stroke="#6a107e"></path><path d="M322.7 1700.3L522.4 2000L618.4 1730.3Z" fill="#4f0b6a" stroke="#4f0b6a"></path><path d="M3433.6 2000L3421.6 1748.3L3152.9 1770.3Z" fill="#420960" stroke="#420960"></path><path d="M3425.6 1414.6L3663.3 1183.9L3411.6 1156.9Z" fill="#781288" stroke="#781288"></path><path d="M515.4 0L336.7 252.7L621.4 328.7Z" fill="#871492" stroke="#871492"></path><path d="M289.7 1428.6L322.7 1700.3L547.4 1444.6Z" fill="#a616a5" stroke="#a616a5"></path><path d="M3737.3 1436.6L3663.3 1183.9L3425.6 1414.6Z" fill="#6a107e" stroke="#6a107e"></path><path d="M3471.6 821.1L3737.3 520.4L3478.6 529.4Z" fill="#b617ae" stroke="#b617ae"></path><path d="M3663.3 1183.9L3713.3 888.1L3411.6 1156.9Z" fill="#b617ae" stroke="#b617ae"></path><path d="M3766.3 321.7L3460.6 0L3402.6 320.7Z" fill="#96159b" stroke="#96159b"></path><path d="M3138.9 2000L3433.6 2000L3152.9 1770.3Z" fill="#6a107e" stroke="#6a107e"></path><path d="M3711.3 1700.3L3737.3 1436.6L3425.6 1414.6Z" fill="#871492" stroke="#871492"></path><path d="M3766.3 321.7L3402.6 320.7L3478.6 529.4Z" fill="#2a044b" stroke="#2a044b"></path><path d="M3402.6 320.7L3460.6 0L3170.9 0Z" fill="#6a107e" stroke="#6a107e"></path><path d="M0 590.4L0 893.1L279.7 612.4Z" fill="#6a107e" stroke="#6a107e"></path><path d="M279.7 612.4L0 893.1L305.7 876.1Z" fill="#a616a5" stroke="#a616a5"></path><path d="M289.7 1428.6L0 1464.6L322.7 1700.3Z" fill="#781288" stroke="#781288"></path><path d="M0 893.1L0 1113.9L305.7 876.1Z" fill="#6a107e" stroke="#6a107e"></path><path d="M3711.3 1700.3L3425.6 1414.6L3421.6 1748.3Z" fill="#360655" stroke="#360655"></path><path d="M4000 1146.9L4000 838.1L3713.3 888.1Z" fill="#4f0b6a" stroke="#4f0b6a"></path><path d="M515.4 0L263.7 0L336.7 252.7Z" fill="#4f0b6a" stroke="#4f0b6a"></path><path d="M0 261.7L0 590.4L279.7 612.4Z" fill="#96159b" stroke="#96159b"></path><path d="M3713.3 888.1L3737.3 520.4L3471.6 821.1Z" fill="#5c0e74" stroke="#5c0e74"></path><path d="M3766.3 321.7L3737.3 520.4L4000 544.4Z" fill="#6a107e" stroke="#6a107e"></path><path d="M322.7 1700.3L262.7 2000L522.4 2000Z" fill="#a616a5" stroke="#a616a5"></path><path d="M0 1724.3L262.7 2000L322.7 1700.3Z" fill="#b617ae" stroke="#b617ae"></path><path d="M0 261.7L279.7 612.4L336.7 252.7Z" fill="#6a107e" stroke="#6a107e"></path><path d="M0 1113.9L0 1464.6L289.7 1428.6Z" fill="#360655" stroke="#360655"></path><path d="M3705.3 2000L3711.3 1700.3L3421.6 1748.3Z" fill="#b617ae" stroke="#b617ae"></path><path d="M4000 838.1L3737.3 520.4L3713.3 888.1Z" fill="#4f0b6a" stroke="#4f0b6a"></path><path d="M3737.3 520.4L3766.3 321.7L3478.6 529.4Z" fill="#5c0e74" stroke="#5c0e74"></path><path d="M263.7 0L0 261.7L336.7 252.7Z" fill="#a616a5" stroke="#a616a5"></path><path d="M0 1464.6L0 1724.3L322.7 1700.3Z" fill="#420960" stroke="#420960"></path><path d="M4000 1146.9L3663.3 1183.9L3737.3 1436.6Z" fill="#4f0b6a" stroke="#4f0b6a"></path><path d="M3433.6 2000L3705.3 2000L3421.6 1748.3Z" fill="#5c0e74" stroke="#5c0e74"></path><path d="M3766.3 321.7L3743.3 0L3460.6 0Z" fill="#360655" stroke="#360655"></path><path d="M4000 1146.9L3737.3 1436.6L4000 1407.6Z" fill="#a616a5" stroke="#a616a5"></path><path d="M4000 1146.9L3713.3 888.1L3663.3 1183.9Z" fill="#a616a5" stroke="#a616a5"></path><path d="M3766.3 321.7L4000 304.7L3743.3 0Z" fill="#b617ae" stroke="#b617ae"></path><path d="M4000 1407.6L3737.3 1436.6L3711.3 1700.3Z" fill="#360655" stroke="#360655"></path><path d="M263.7 0L0 0L0 261.7Z" fill="#5c0e74" stroke="#5c0e74"></path><path d="M0 1724.3L0 2000L262.7 2000Z" fill="#96159b" stroke="#96159b"></path><path d="M4000 1770.3L4000 1407.6L3711.3 1700.3Z" fill="#a616a5" stroke="#a616a5"></path><path d="M4000 838.1L4000 544.4L3737.3 520.4Z" fill="#420960" stroke="#420960"></path><path d="M4000 544.4L4000 304.7L3766.3 321.7Z" fill="#2a044b" stroke="#2a044b"></path><path d="M3705.3 2000L4000 1770.3L3711.3 1700.3Z" fill="#a616a5" stroke="#a616a5"></path><path d="M4000 304.7L4000 0L3743.3 0Z" fill="#781288" stroke="#781288"></path><path d="M3705.3 2000L4000 2000L4000 1770.3Z" fill="#a616a5" stroke="#a616a5"></path></g></svg>