<svg id="visual" viewBox="0 0 4000 2000" width="4000" height="2000" xmlns="http://www.w3.org/2000/svg" xmlns:xlink="http://www.w3.org/1999/xlink" version="1.1"><rect x="0" y="0" width="4000" height="2000" fill="#030657"></rect><defs><linearGradient id="grad1_0" x1="50%" y1="0%" x2="100%" y2="100%"><stop offset="10%" stop-color="#e23cfa" stop-opacity="1"></stop><stop offset="90%" stop-color="#e23cfa" stop-opacity="1"></stop></linearGradient></defs><defs><linearGradient id="grad1_1" x1="50%" y1="0%" x2="100%" y2="100%"><stop offset="10%" stop-color="#e23cfa" stop-opacity="1"></stop><stop offset="90%" stop-color="#b233db" stop-opacity="1"></stop></linearGradient></defs><defs><linearGradient id="grad1_2" x1="50%" y1="0%" x2="100%" y2="100%"><stop offset="10%" stop-color="#8529bb" stop-opacity="1"></stop><stop offset="90%" stop-color="#b233db" stop-opacity="1"></stop></linearGradient></defs><defs><linearGradient id="grad1_3" x1="50%" y1="0%" x2="100%" y2="100%"><stop offset="10%" stop-color="#8529bb" stop-opacity="1"></stop><stop offset="90%" stop-color="#5a1d9a" stop-opacity="1"></stop></linearGradient></defs><defs><linearGradient id="grad1_4" x1="50%" y1="0%" x2="100%" y2="100%"><stop offset="10%" stop-color="#321178" stop-opacity="1"></stop><stop offset="90%" stop-color="#5a1d9a" stop-opacity="1"></stop></linearGradient></defs><defs><linearGradient id="grad1_5" x1="50%" y1="0%" x2="100%" y2="100%"><stop offset="10%" stop-color="#321178" stop-opacity="1"></stop><stop offset="90%" stop-color="#030657" stop-opacity="1"></stop></linearGradient></defs><defs><linearGradient id="grad2_0" x1="0%" y1="0%" x2="50%" y2="100%"><stop offset="10%" stop-color="#e23cfa" stop-opacity="1"></stop><stop offset="90%" stop-color="#e23cfa" stop-opacity="1"></stop></linearGradient></defs><defs><linearGradient id="grad2_1" x1="0%" y1="0%" x2="50%" y2="100%"><stop offset="10%" stop-color="#b233db" stop-opacity="1"></stop><stop offset="90%" stop-color="#e23cfa" stop-opacity="1"></stop></linearGradient></defs><defs><linearGradient id="grad2_2" x1="0%" y1="0%" x2="50%" y2="100%"><stop offset="10%" stop-color="#b233db" stop-opacity="1"></stop><stop offset="90%" stop-color="#8529bb" stop-opacity="1"></stop></linearGradient></defs><defs><linearGradient id="grad2_3" x1="0%" y1="0%" x2="50%" y2="100%"><stop offset="10%" stop-color="#5a1d9a" stop-opacity="1"></stop><stop offset="90%" stop-color="#8529bb" stop-opacity="1"></stop></linearGradient></defs><defs><linearGradient id="grad2_4" x1="0%" y1="0%" x2="50%" y2="100%"><stop offset="10%" stop-color="#5a1d9a" stop-opacity="1"></stop><stop offset="90%" stop-color="#321178" stop-opacity="1"></stop></linearGradient></defs><defs><linearGradient id="grad2_5" x1="0%" y1="0%" x2="50%" y2="100%"><stop offset="10%" stop-color="#030657" stop-opacity="1"></stop><stop offset="90%" stop-color="#321178" stop-opacity="1"></stop></linearGradient></defs><g transform="translate(4000, 0)"><path d="M0 1900C-253 1716.1 -505.9 1532.2 -806.5 1396.9C-1107.1 1261.6 -1455.3 1174.7 -1645.4 950C-1835.6 725.3 -1867.8 362.6 -1900 0L0 0Z" fill="#1d0b68"></path><path d="M0 1583.3C-210.8 1430.1 -421.6 1276.9 -672.1 1164.1C-922.6 1051.3 -1212.7 978.9 -1371.2 791.7C-1529.7 604.4 -1556.5 302.2 -1583.3 0L0 0Z" fill="#461789"></path><path d="M0 1266.7C-168.6 1144.1 -337.3 1021.5 -537.7 931.3C-738.1 841 -970.2 783.2 -1097 633.3C-1223.8 483.5 -1245.2 241.8 -1266.7 0L0 0Z" fill="#6f23ab"></path><path d="M0 950C-126.5 858.1 -253 766.1 -403.2 698.4C-553.5 630.8 -727.6 587.4 -822.7 475C-917.8 362.6 -933.9 181.3 -950 0L0 0Z" fill="#9b2ecb"></path><path d="M0 633.3C-84.3 572 -168.6 510.7 -268.8 465.6C-369 420.5 -485.1 391.6 -548.5 316.7C-611.9 241.8 -622.6 120.9 -633.3 0L0 0Z" fill="#ca38eb"></path><path d="M0 316.7C-42.2 286 -84.3 255.4 -134.4 232.8C-184.5 210.3 -242.5 195.8 -274.2 158.3C-305.9 120.9 -311.3 60.4 -316.7 0L0 0Z" fill="#e23cfa"></path></g><g transform="translate(0, 2000)"><path d="M0 -1900C370.9 -1872.6 741.9 -1845.2 950 -1645.4C1158.1 -1445.7 1203.4 -1073.5 1334.5 -770.5C1465.7 -467.5 1682.9 -233.8 1900 0L0 0Z" fill="#1d0b68"></path><path d="M0 -1583.3C309.1 -1560.5 618.2 -1537.7 791.7 -1371.2C965.1 -1204.7 1002.8 -894.6 1112.1 -642.1C1221.4 -389.6 1402.4 -194.8 1583.3 0L0 0Z" fill="#461789"></path><path d="M0 -1266.7C247.3 -1248.4 494.6 -1230.2 633.3 -1097C772.1 -963.8 802.2 -715.7 889.7 -513.7C977.2 -311.7 1121.9 -155.8 1266.7 0L0 0Z" fill="#6f23ab"></path><path d="M0 -950C185.5 -936.3 370.9 -922.6 475 -822.7C579.1 -722.8 601.7 -536.7 667.3 -385.3C732.9 -233.8 841.4 -116.9 950 0L0 0Z" fill="#9b2ecb"></path><path d="M0 -633.3C123.6 -624.2 247.3 -615.1 316.7 -548.5C386 -481.9 401.1 -357.8 444.8 -256.8C488.6 -155.8 561 -77.9 633.3 0L0 0Z" fill="#ca38eb"></path><path d="M0 -316.7C61.8 -312.1 123.6 -307.5 158.3 -274.2C193 -240.9 200.6 -178.9 222.4 -128.4C244.3 -77.9 280.5 -39 316.7 0L0 0Z" fill="#e23cfa"></path></g></svg>